<svg id="Layer_1" data-name="Layer 1" xmlns="http://www.w3.org/2000/svg" viewBox="0 0 142.16 18.58"><defs><style>.cls-1{fill:#fff;}.cls-2{fill:#5d2e8f;}</style></defs><title>Artboard 1</title><path class="cls-1" d="M142.16,0V13.88a4.7,4.7,0,0,1-1.31,3.2,4.88,4.88,0,0,1-3.57,1.5H4.88A4.84,4.84,0,0,1,0,13.78V0Z"/><path class="cls-2" d="M28.43,13.46V7.39A3,3,0,0,1,33.94,6l3.71,5.85a1.16,1.16,0,0,0,1.55.39,1.1,1.1,0,0,0,.59-.91v-6a.92.92,0,0,1,.91-.78h0a.91.91,0,0,1,.92.77v6a2.83,2.83,0,0,1-1.78,2.66,3.33,3.33,0,0,1-1.26.26A3,3,0,0,1,36.19,13c-.34-.52-3.59-5.64-3.72-5.87a1.23,1.23,0,0,0-1.06-.7,1.1,1.1,0,0,0-1.14,1.15v5.81a.89.89,0,0,1-.91.84h0A.9.9,0,0,1,28.43,13.46Zm-1.77.74h0a.93.93,0,0,0,.92-.78h0V5.35a.93.93,0,0,0-.92-.78h0a.92.92,0,0,0-.92.79v8.07A.92.92,0,0,0,26.66,14.21Zm-6.6,0a4.81,4.81,0,0,0,4.11-2.29.47.47,0,0,0-.14-.65.47.47,0,0,0-.66.13,3.88,3.88,0,1,1,.54-2.51H19.38a.48.48,0,0,0,0,1h5a.45.45,0,0,0,.48-.46,4.83,4.83,0,1,0-4.83,4.83ZM5,9.52V1.76a.46.46,0,1,1,.92,0V6.5a4.84,4.84,0,0,1,8.72,2.85,4.91,4.91,0,0,1-4.82,4.86A4.76,4.76,0,0,1,5,9.52ZM6,9.35A3.87,3.87,0,1,0,9.84,5.45,3.89,3.89,0,0,0,6,9.35ZM142.16,0V13.88a4.7,4.7,0,0,1-1.31,3.2,4.88,4.88,0,0,1-3.57,1.5H4.88A4.85,4.85,0,0,1,0,13.78V0ZM46.87.69H.69V13.27A4.62,4.62,0,0,0,2,16.42,4.79,4.79,0,0,0,5.5,17.88H42.05a4.71,4.71,0,0,0,4.82-4.62ZM59.26,6.63v0l.18.15h0a.64.64,0,0,0,.44.18.61.61,0,0,0,.43-.18.6.6,0,0,0,.17-.4.51.51,0,0,0,0-.13.71.71,0,0,0,0-.13A.57.57,0,0,0,60.37,6a.57.57,0,0,0,0-.07h0a4.83,4.83,0,0,0-.71-.59l0,0-.11-.07a4.89,4.89,0,0,0-2.61-.75h-.23l-.41,0-.46.08h0A4.85,4.85,0,0,0,52,8.42s0,.06,0,.08a5,5,0,0,0-.05.57c0,.11,0,.21,0,.32s0,.21,0,.32a5,5,0,0,0,.05.57s0,.06,0,.09a4.85,4.85,0,0,0,3.67,3.81h0l.46.08.41,0h.23a4.89,4.89,0,0,0,2.59-.74l.13-.08h0a4.84,4.84,0,0,0,.73-.61h0a.57.57,0,0,0,0-.07.54.54,0,0,0,.09-.14.69.69,0,0,0,0-.13.5.5,0,0,0,0-.13.59.59,0,0,0-.17-.4.62.62,0,0,0-.43-.18.64.64,0,0,0-.44.18h0l-.18.15v0h0l-.15.11a3.56,3.56,0,0,1-.34.24l-.18.1a3.64,3.64,0,0,1-.44.21h0a3.64,3.64,0,0,1-1.24.23h-.09a3.64,3.64,0,0,1-2.63-1.2,3.6,3.6,0,0,1-.71-1.17v0a3.82,3.82,0,0,1-.16-.6c0-.07,0-.15,0-.22a3.89,3.89,0,0,1,0-.44,3.94,3.94,0,0,1,0-.44c0-.07,0-.15,0-.22a3.85,3.85,0,0,1,.16-.6v0a3.59,3.59,0,0,1,.71-1.17,3.64,3.64,0,0,1,2.63-1.2h.09a3.67,3.67,0,0,1,1.25.23h0a3.69,3.69,0,0,1,.44.21l.18.1a4.09,4.09,0,0,1,.34.24l.15.11Zm12,2.76a4.91,4.91,0,1,0-4.91,4.91A4.91,4.91,0,0,0,71.26,9.39ZM81.53,5.18a.65.65,0,0,0-.65-.67.67.67,0,0,0-.66.67v7a.73.73,0,0,1-.51.62.74.74,0,0,1-.74-.24c-.12-.2-.69-1.67-1.25-3.08-.69-1.77-1.41-3.6-1.58-3.87A2.06,2.06,0,0,0,74.33,4.5a2.51,2.51,0,0,0-.81.15,2.07,2.07,0,0,0-1.31,1.85v7.1a.66.66,0,1,0,1.31,0v-7A.78.78,0,0,1,74,6a.74.74,0,0,1,.74.24c.12.21.69,1.67,1.25,3.08.69,1.77,1.41,3.6,1.58,3.88a2.06,2.06,0,0,0,1.81,1.09,2.45,2.45,0,0,0,.81-.15,2.05,2.05,0,0,0,1.3-1.85Zm10.71,0a.65.65,0,0,0-.65-.67.67.67,0,0,0-.66.67v7a.73.73,0,0,1-.51.62.74.74,0,0,1-.74-.24c-.12-.2-.69-1.67-1.24-3.08-.69-1.77-1.41-3.6-1.58-3.87A2.06,2.06,0,0,0,85,4.5a2.48,2.48,0,0,0-.81.15,2.06,2.06,0,0,0-1.31,1.85v7.1a.66.66,0,1,0,1.31,0v-7A.77.77,0,0,1,84.76,6a.74.74,0,0,1,.74.24c.12.21.69,1.67,1.25,3.08.69,1.77,1.41,3.6,1.58,3.88a2.05,2.05,0,0,0,1.81,1.09,2.46,2.46,0,0,0,.81-.15,2.06,2.06,0,0,0,1.29-1.85ZM94.9,8.77v-.7a2,2,0,0,1,1.85-2.16h2.38a.63.63,0,0,0,.64-.62.62.62,0,0,0-.53-.61H97a3.46,3.46,0,0,0-2.47.72,3.48,3.48,0,0,0-.94,2.69v2.62a3.48,3.48,0,0,0,.94,2.69,3.47,3.47,0,0,0,2.46.73h2.19a.62.62,0,0,0,0-1.23H97a2,2,0,0,1-2.11-2.17V10h3.32a.62.62,0,1,0,0-1.24ZM108,6.63v0l.18.15h0a.65.65,0,0,0,.44.18.6.6,0,0,0,.43-.18.59.59,0,0,0,.17-.4.53.53,0,0,0,0-.13.59.59,0,0,0,0-.13.65.65,0,0,0-.09-.14.54.54,0,0,0,0-.07h0a5.08,5.08,0,0,0-.71-.59l0,0-.11-.07a4.9,4.9,0,0,0-2.61-.75h-.23l-.41,0-.46.08h0A4.87,4.87,0,0,0,102,6.1a4.82,4.82,0,0,0-1.14,2.31s0,.06,0,.08a5.05,5.05,0,0,0-.05.57c0,.11,0,.21,0,.32s0,.21,0,.32a5,5,0,0,0,.05.57s0,.06,0,.09A4.82,4.82,0,0,0,102,12.67a4.87,4.87,0,0,0,2.53,1.5h0l.46.08.41,0h.23a4.89,4.89,0,0,0,2.59-.74l.13-.08h0a5,5,0,0,0,.74-.61h0a.54.54,0,0,0,0-.07.62.62,0,0,0,.09-.14.58.58,0,0,0,0-.13.52.52,0,0,0,0-.13.59.59,0,0,0-.17-.4.61.61,0,0,0-.43-.18.65.65,0,0,0-.44.18h0c-.06.06-.12.1-.18.15v0h0l-.15.11a3.57,3.57,0,0,1-.34.24l-.18.1a3.64,3.64,0,0,1-.44.21h0a3.66,3.66,0,0,1-1.24.23h-.09a3.64,3.64,0,0,1-2.63-1.2,3.61,3.61,0,0,1-.71-1.17v0A3.62,3.62,0,0,1,102,10c0-.07,0-.15,0-.22a3.9,3.9,0,0,1,0-.44,4,4,0,0,1,0-.44c0-.07,0-.15,0-.22a3.65,3.65,0,0,1,.16-.6v0a3.6,3.6,0,0,1,.71-1.17,3.64,3.64,0,0,1,2.63-1.2h.09a3.69,3.69,0,0,1,1.25.23h0a3.69,3.69,0,0,1,.44.21l.18.1a4.1,4.1,0,0,1,.34.24l.15.11Zm8.91-1.34a.62.62,0,0,0-.61-.62h-5.5a.62.62,0,0,0,0,1.23H113v7.6a.62.62,0,0,0,1.23,0V5.9h2.13A.62.62,0,0,0,116.94,5.28ZM141.47.69H126.82a4.79,4.79,0,0,0-3.52,1.46A4.62,4.62,0,0,0,122,5.3V17.88h14.63a4.71,4.71,0,0,0,4.82-4.62Zm-75.11,5a3.72,3.72,0,1,0,3.72,3.72A3.72,3.72,0,0,0,66.36,5.67Zm62.18,9.2V3.55l9.33,5.66Zm0,0V3.55l9.33,5.66Z"/></svg>