<svg xmlns="http://www.w3.org/2000/svg" viewBox="0 0 205 75.8"><defs><style>.cls-1{fill:#fff;}.cls-2{fill:#eaa55e;}.cls-3{fill:#00a6ce;}</style></defs><title>logotypeAsset 10</title><g id="Layer_2" data-name="Layer 2"><g id="Layer_1-2" data-name="Layer 1"><path class="cls-1" d="M16.51,40.45V22H10.65v2.64h2.23v5.22a4.21,4.21,0,0,0-1-1,6.08,6.08,0,0,0-1.27-.71,7.11,7.11,0,0,0-1.43-.42,7.28,7.28,0,0,0-1.43-.14,9.39,9.39,0,0,0-3,.48A6.56,6.56,0,0,0,2.27,29.5,6.82,6.82,0,0,0,.6,32,9.62,9.62,0,0,0,0,35.55,9.15,9.15,0,0,0,.6,39a7.23,7.23,0,0,0,1.65,2.49A6.89,6.89,0,0,0,4.7,43a8.93,8.93,0,0,0,3.06.52A6.32,6.32,0,0,0,12.94,41v2.24h5.84V40.45Zm-4.21-2.9A4.3,4.3,0,0,1,11.16,39a4.8,4.8,0,0,1-1.51.84,4.63,4.63,0,0,1-1.55.28,4.76,4.76,0,0,1-1.74-.31A4.13,4.13,0,0,1,5,38.88a4,4,0,0,1-1-1.43,5,5,0,0,1-.36-2A5.37,5.37,0,0,1,4,33.41,4.15,4.15,0,0,1,5,32a4.27,4.27,0,0,1,1.48-.85,5.47,5.47,0,0,1,1.77-.28,4.77,4.77,0,0,1,1.58.29A4.42,4.42,0,0,1,11.3,32a4.32,4.32,0,0,1,1,1.47,4.93,4.93,0,0,1,.41,2.07A4.13,4.13,0,0,1,12.3,37.55Z"/><path class="cls-1" d="M32.5,38.68a3.59,3.59,0,0,1-1.68,1.09,6.29,6.29,0,0,1-3.6.09,4.61,4.61,0,0,1-1.55-.74A4.12,4.12,0,0,1,24.5,37.7a4.89,4.89,0,0,1-.44-2.18,5.44,5.44,0,0,1,.35-2.05A4.2,4.2,0,0,1,26.91,31a6.35,6.35,0,0,1,1.9-.39,6.28,6.28,0,0,1,2.08.22v1.71h3.32v-4a12.81,12.81,0,0,0-2.7-.8,15.86,15.86,0,0,0-2.89-.25,10.19,10.19,0,0,0-3,.45,7.19,7.19,0,0,0-4.53,3.92,8.55,8.55,0,0,0-.73,3.67,9,9,0,0,0,.67,3.57,6.82,6.82,0,0,0,1.82,2.49A7.34,7.34,0,0,0,25.56,43a10.93,10.93,0,0,0,3.28.49A9.13,9.13,0,0,0,32,43a8.1,8.1,0,0,0,2.81-1.86Z"/><path class="cls-1" d="M42.69,22.46a2.29,2.29,0,0,0-3,0A2,2,0,0,0,39,24.06a2.07,2.07,0,0,0,.66,1.62,2.28,2.28,0,0,0,1.54.59,2.1,2.1,0,0,0,2.14-2.18A2,2,0,0,0,42.69,22.46Zm.27,18v-13h-5.8v2.7H39.3v10.3H37.12v2.74H45V40.48Z"/><path class="cls-1" d="M65,32.21a6.89,6.89,0,0,0-1.53-2.45,6.56,6.56,0,0,0-2.41-1.54A9.89,9.89,0,0,0,58,27.63a5.87,5.87,0,0,0-3.09.79,8.33,8.33,0,0,0-2.24,2,.05.05,0,0,0,0,0c0-.11,0-1.1,0-1.34s0-.5,0-.8,0-.82,0-.82H46.78v2.7H49v17H47.09V50h7.82V47.22H52.52v-6A5.87,5.87,0,0,0,55,43.09a7.79,7.79,0,0,0,2.78.53A9,9,0,0,0,61,43.06a6.83,6.83,0,0,0,2.47-1.61A7.18,7.18,0,0,0,65,38.9a9.53,9.53,0,0,0,.55-3.35A9.24,9.24,0,0,0,65,32.21Zm-3.42,5.42A4.14,4.14,0,0,1,59.24,40a4.34,4.34,0,0,1-3.42,0,4.58,4.58,0,0,1-1.39-1,4.68,4.68,0,0,1-1-1.46,4.8,4.8,0,0,1-.37-1.94,4.51,4.51,0,0,1,.38-1.86,4.72,4.72,0,0,1,1-1.43,4.6,4.6,0,0,1,3.09-1.21,4.54,4.54,0,0,1,3.2,1.1A4.52,4.52,0,0,1,62,35.67,5.56,5.56,0,0,1,61.62,37.63Z"/><path class="cls-1" d="M84.54,40.58V35a8,8,0,0,0-1.66-5.37,6.17,6.17,0,0,0-4.95-1.92,6.66,6.66,0,0,0-2.53.49,6.49,6.49,0,0,0-2.32,1.68v-8H67.31v2.67h2.17v16H67.15v2.64h8.26V40.58H73.14V35.73A5.58,5.58,0,0,1,73.41,34a4.48,4.48,0,0,1,.79-1.46,3.89,3.89,0,0,1,1.29-1,4.37,4.37,0,0,1,1.75-.4,3.73,3.73,0,0,1,2.73.82,4.06,4.06,0,0,1,1,3.15v5.5H79.32v2.64h7.51V40.58Z"/><path class="cls-1" d="M103.66,32.79a7.43,7.43,0,0,0-1.49-3A6.17,6.17,0,0,0,99.62,28a9.21,9.21,0,0,0-3.41-.59,8.8,8.8,0,0,0-3.32.6,8,8,0,0,0-2.58,1.66,7.37,7.37,0,0,0-1.68,2.53A8.56,8.56,0,0,0,88,35.42a9.73,9.73,0,0,0,.58,3.42A6.87,6.87,0,0,0,92.89,43a10.32,10.32,0,0,0,3.5.56,11,11,0,0,0,1.79-.16A10.55,10.55,0,0,0,100,43a8,8,0,0,0,1.65-.76,6.58,6.58,0,0,0,1.4-1.11l-2.33-2.4a3.32,3.32,0,0,1-.84.66,6.8,6.8,0,0,1-1.06.47,6.43,6.43,0,0,1-1.14.32,6.67,6.67,0,0,1-1.15.11,5.29,5.29,0,0,1-3.29-1,3.71,3.71,0,0,1-1.49-2.44h12.2A11.66,11.66,0,0,0,103.66,32.79ZM91.71,34a3.91,3.91,0,0,1,1.72-2.46,5.24,5.24,0,0,1,2.87-.83,4.46,4.46,0,0,1,2.78.83A3.59,3.59,0,0,1,100.43,34Z"/><path class="cls-1" d="M118.79,27.82a5.83,5.83,0,0,0-2.25-.4,7.27,7.27,0,0,0-2.28.38A5.27,5.27,0,0,0,112,29.46l-.44-2h-5.18v2.7h2.2V40.55h-2.45v2.67h8.26V40.55h-2.2V35.08a5,5,0,0,1,.29-1.8,3.64,3.64,0,0,1,.81-1.29,3.32,3.32,0,0,1,1.19-.76A4.29,4.29,0,0,1,116,31a5,5,0,0,1,1.51.23,4.81,4.81,0,0,1,1.47.73l1.68-3.11A8.52,8.52,0,0,0,118.79,27.82Z"/><path class="cls-1" d="M16,69.17V56.59h2.49V55.2H14.53v3.41C13.44,56.19,10.68,55,8.16,55A7.54,7.54,0,0,0,.37,62.86a7.57,7.57,0,0,0,7.79,8,7,7,0,0,0,6.34-3.57c0,.84.09,2.48.09,3.29h3.88V69.17Zm-7.72.24a6.19,6.19,0,0,1-6.4-6.51,6.14,6.14,0,0,1,6.33-6.49c4.29,0,6.43,3.2,6.4,6.55S12.39,69.41,8.23,69.41Z"/><path class="cls-1" d="M37,69.17V61.72c0-4.29-2.36-6.8-6.64-6.8a6.37,6.37,0,0,0-5.75,3.44l-.06-3.16H20.64v1.36h2.49V69.17H20.64v1.36h6.3V69.17H24.58V62a5.61,5.61,0,0,1,5.68-5.68c3.36,0,5.22,1.83,5.22,5.43v7.42H33.24v1.36h6.24V69.17Z"/><path class="cls-1" d="M55.58,69.17V56.59h2.49V55.2H54.15v3.41C53.07,56.19,50.3,55,47.79,55A7.54,7.54,0,0,0,40,62.86a7.57,7.57,0,0,0,7.79,8,7,7,0,0,0,6.33-3.57c0,.84.1,2.48.1,3.29H58.1V69.17Zm-7.73.24a6.19,6.19,0,0,1-6.4-6.51A6.37,6.37,0,1,1,54.18,63C54.15,66.22,52,69.41,47.85,69.41Z"/><path class="cls-1" d="M64.3,69.13V48.8H60.36v1.37h2.52v19H60.3v1.4h6.58v-1.4Z"/><polygon class="cls-1" points="85 55.2 85 56.56 83.1 56.56 78.34 68.02 76.44 72.61 75.11 75.8 73.5 75.8 74.86 72.61 75.81 70.38 69.88 56.56 67.83 56.56 67.83 55.2 73.64 55.2 73.64 56.56 71.49 56.56 74.85 64.32 76.61 68.86 78.32 64.29 81.46 56.56 79.19 56.56 79.19 55.2 85 55.2"/><path class="cls-1" d="M97.13,68.7a6.57,6.57,0,0,1-2.54.71c-2.42,0-2.83-1.52-2.83-3.6V56.47h4.91V55.2H91.76v-6H90.3v6H87.2v1.27h3.1v9.34c0,3.14,1.06,4.94,4.29,4.94a7.09,7.09,0,0,0,3.07-.84Z"/><path class="cls-1" d="M102.59,49.05a1.1,1.1,0,0,0-1.21,1.12,1.07,1.07,0,0,0,1.15,1.15,1.14,1.14,0,1,0,.06-2.27Zm.68,20.08v-14H99.33v1.36h2.52v12.6H99.24v1.4h6.64v-1.4Z"/><path class="cls-1" d="M120.06,67.43a6.46,6.46,0,0,1-4.62,1.89c-3.85,0-6.61-2.39-6.61-6.42,0-4.29,3-6.49,6.55-6.52a7.09,7.09,0,0,1,3.69,1v2.39h1.34l.06-3.1A8.74,8.74,0,0,0,115.38,55c-4.57,0-8,2.89-8,7.89s3.44,7.82,8,7.82a7.87,7.87,0,0,0,5.62-2.3Z"/><path class="cls-1" d="M129.08,61.93c-2.42-.37-4.69-.8-4.69-2.82s2-3,4.59-2.92a9.67,9.67,0,0,1,4.13.9l.06,2.17h1.31l.06-3A11.55,11.55,0,0,0,129,54.86c-3.13,0-6,1.21-6,4.25s3.45,3.79,6,4.16,5,.84,5,3.07c0,2.48-2.89,3.07-4.87,3.07a10.42,10.42,0,0,1-4.84-1.27l0-2.2h-1.36V69A11.42,11.42,0,0,0,129,70.81c3,0,6.33-1.09,6.39-4.41C135.47,62.8,131.72,62.37,129.08,61.93Z"/><path class="cls-1" d="M72.94,75.8h2.17l.58-1.39H71.51V75.8Z"/><circle class="cls-2" cx="185.74" cy="54.95" r="11.66"/><path class="cls-1" d="M172.46,55a13.24,13.24,0,0,1,5.09-10.44,20.8,20.8,0,0,0-17.8-15.57c-.06.15-.13.3-.2.45a9.44,9.44,0,0,1-.52.94c-.2.34-.41.66-.63,1A12.9,12.9,0,0,1,148,36.6a12.76,12.76,0,0,1-3-.37c-.39-.1-.75-.2-1.09-.32s-.71-.25-1-.38l-.52-.25a20.77,20.77,0,1,0,31.95,26.39A13.21,13.21,0,0,1,172.46,55Z"/><path class="cls-3" d="M172.38.49A9.54,9.54,0,1,0,181.92,10,9.54,9.54,0,0,0,172.38.49Z"/><circle class="cls-1" cx="176.97" cy="28.25" r="5.4"/><circle class="cls-3" cx="194.55" cy="31.97" r="10.45"/><circle class="cls-1" cx="153.74" cy="5.79" r="5.79"/><circle class="cls-2" cx="193.13" cy="10.67" r="8.22"/><circle class="cls-3" cx="165.79" cy="23.18" r="2.93"/><path class="cls-2" d="M131.8,28.4a5.9,5.9,0,1,0,5.89,5.89A5.9,5.9,0,0,0,131.8,28.4Z"/><path class="cls-1" d="M157.64,29.5c.16-.27.31-.54.45-.82A11.23,11.23,0,1,0,143.51,34c.29.13.59.23.89.34s.63.19.95.27A11.07,11.07,0,0,0,148,35a11.22,11.22,0,0,0,9.08-4.64C157.28,30.07,157.47,29.79,157.64,29.5Z"/></g></g></svg>