<svg xmlns="http://www.w3.org/2000/svg" xmlns:xlink="http://www.w3.org/1999/xlink" width="79" height="14" viewBox="0 0 79 14">
    <defs>
        <path id="a" d="M72.013.908C72.974.38 73.963 0 75.122 0c.654 0 1.362.122 2.148.407 2.177.789 1.335.624 1.497.693.163.07.326.175.17.576-.154.4-.272 1.2-.43 1.383-.159.184-.385.152-.583-.098-.197-.249-.729-1.143-1.345-1.312-.617-.168-1.398-.623-2.648.053-1.249.676-.116 2.93.375 3.356.49.424 2.08 2.78 2.217 3.393.139.611.554 2.303-.753 3.45-1.307 1.146-2.2 1.815-4.913 1.868 0 0-.777-.02-1.134-.123-.356-.102-.326-.247-.68-.24-.356.008-.808.053-.938.019-.13-.034-.292-.102-.23-.321.06-.218.437-.984.437-.984s.123-.329.379-.515c.255-.185.126-.147.457.317.33.463.688.565.914.669.229.105 1.457.152 1.97-.04.514-.189.99-.741 1.017-1.14.025-.397.05-.904-.968-2.005-1.019-1.102-2.144-2.78-2.198-4.226-.055-1.445.624-3.447 2.13-4.272zM50.978.565a4.325 4.325 0 0 1 1.676-.35c.616 0 1.104.14 1.487.214.681.133 1.234.447 1.624.584.39.137.358.138.717.348.358.21.105.612.105.612s-.214.728-.338 1.055c-.124.33-.09.436-.316.405-.044-.006-.075-.004-.1-.003-.11.007-.11.014-.458-.566-.432-.714-1.15-1.279-2.636-1.25-1.485.03-1.664 1.045-1.62 1.841.046.794 1.233 2.362 1.86 3.218.628.856 1.291 1.964 1.432 2.794.143.829-.133 1.774-.735 2.581-.6.807-2.077 1.451-2.655 1.644-.579.191-2.19.332-2.612.305-.42-.029-1.167-.267-1.394-.335-.13-.039-.425-.028-.71-.016-.215.009-.424.018-.55.004-.292-.03-.138-.576-.138-.576l.5-1.022-4.585.089c-.228-.067-.102-.36.087-.652.19-.294.085-.725.085-.725l-.86-3.348-3.164.063s-2.362 3.879-2.52 4.136c-.158.256-.06.255-.06.255.36.318-.124.363-.124.363l-1.873.037c-.26-.067-.103-.36.09-.508.19-.148.41-.587.41-.587L39.902.852S43.454.747 43.648.78c.195.032.2.357.106.54-.094.183-.028.29-.028.29s2.147 9.253 2.247 9.468c.1.215.004.253.296.356.293.103.199.321.199.321.158-.22.559.604.69.783.132.178.684.275 1.073.377.39.1 1.195.048 1.963-.437.768-.486.66-1.17.359-1.852-.301-.681-1.843-2.206-2.275-2.957-.432-.75-1.14-2.726-.296-4.515.844-1.788 1.519-1.983 2.996-2.59zm-11.03 3.289l-1.45 2.306 2.003-.039-.553-2.267zm-12.92-2.026C28.6.943 29.807.581 31.134.581c.079 0 .157.002.236.004 1.423.046 1.94.07 2.557.277.616.204.812.309 1.135.339.069.006.14.003.209-.001.252-.013.46-.025.316.46-.185.619-.725 1.208-.886 1.211-.161.003-.129.075-.326-.138-.196-.213-.758-.962-1.276-1.06-.518-.098-1.715-.11-2.515.267-.802.376-1.95 1.339-2.645 2.4-.694 1.065-1.381 2.488-1.561 3.432-.18.943-.418 2.178.044 2.784.461.605 1.236.59 1.558.512.322-.079 1.474-.789 1.915-1.484.442-.696.845-1.716.94-1.936.092-.218.057-.399-.074-.54-.131-.143-.327-.283-.33-.428-.002-.145.092-.364.092-.364l4.165-.08s.425.315.013.759c0 0-.447.334-.573.589-.125.256-.619 1.82-.678 2.039-.062.218-.33 1.67-.742 2.184-.411.514-.348.514-.348.514l-2.454.048s.12-.582-.489-.28c-.609.3-1.668.755-2.282.767-.613.013-1.975-.359-2.465-.674-.49-.317-1.276-1.06-1.58-1.85-.303-.79-.423-2.343.326-4.021.75-1.678 1.947-3.546 3.612-4.483zm38.67-.957l4.376-.085s.612.056.225.646c0 0-2.336 5.323-2.574 5.773-.238.45-1.389 3.18-2.875 4.032-1.487.85-2.706 1.399-4.169 1.553-1.589.17-3.366-.002-4.642-1.279-1.274-1.277-.518-3.793-.164-4.725.353-.933 1.852-4.8 1.852-4.8s.12-.139.026-.309c-.094-.169-.163-.613.143-.688.305-.074.488-.009.488-.009L62.516.9s.644.123.01.719c0 0-.154-.066-.445.83-.293.897-2.68 6.803-2.68 6.803s-.526 1.587.215 1.95c.74.362 1.532.072 1.92-.518.388-.59 4.163-9.813 4.163-9.813zm-49.533.369s6.52-.16 7.845-.16c.09 0 .158 0 .196.002.594.025.306.549.306.549s-.192.372-.353.67c-.16.298-.494.01-.494.01-.2-.218-.3-.142-.3-.142l-3.261.064L18.58 5.99l2.933-.057c.297-.006.356-.377.356-.377.589-.38.437.546.315 1.139s-.35.856-.58.86c-.231.004-.301-.29-.338-.51-.036-.22-.235-.255-.235-.255l-2.8.056-1.877 4.391s5.175-.064 5.207-.102c.124-.143.289-.448.289-.448.688-.309.565.21.508.802-.057.592-.707 1.159-.707 1.159l-10.051.195c-.363.007-.269-.29-.269-.29s4.07-9.639 4.26-10.085c.191-.447-.238-.474-.437-.619-.2-.143.22-.595.22-.595l.791-.014zm-12.471.053l8.911-.174s1.369.445 1.557 2.111c.188 1.666-.661 3.351-1.947 4.03-1.287.679-2.127.84-3.1.859l-2.818.055-1.5 3.659s.626.568-.018.835l-4.666.09s-.197-.104-.071-.36c.126-.258 3.966-9.622 3.966-9.622s.418-.3.024-.654c0 0-.459-.245-.491-.281-.168-.182.153-.548.153-.548zm3.164 5.455s.14.018.352.018c.348 0 .89-.048 1.33-.305.411-.24 1.089-.82 1.338-1.514.188-.527.433-1.279.068-1.853-.283-.443-.43-.571-.95-.67a.88.88 0 0 0-.422.008L6.858 6.748z"/>
    </defs>
    <use fill="#DC2C2B" fill-rule="evenodd" xlink:href="#a"/>
</svg>
